<?xml version="1.0" encoding="iso-8859-1"?>
<!-- Generator: Adobe Illustrator 16.0.0, SVG Export Plug-In . SVG Version: 6.00 Build 0)  -->
<!DOCTYPE svg PUBLIC "-//W3C//DTD SVG 1.1//EN" "http://www.w3.org/Graphics/SVG/1.1/DTD/svg11.dtd">
<svg version="1.1" id="Capa_1" xmlns="http://www.w3.org/2000/svg" xmlns:xlink="http://www.w3.org/1999/xlink" x="0px" y="0px"
	 width="487.159px" height="487.159px" viewBox="0 0 487.159 487.159" style="enable-background:new 0 0 487.159 487.159;"
	 xml:space="preserve">
<g>
	<g>
		<g id="Icons_4_">
			<g>
				<path d="M316.3,334.667l15.067-19.398c5.524-7.12,4.288-17.402-2.752-22.979c-7.074-5.571-17.235-4.325-22.762,2.778
					l-15.595,20.089c-4.111,5.267-6.38,11.874-6.38,18.594v33.588h-79.802v-33.581c0-6.709-2.261-13.304-6.347-18.56l-1.824-2.342
					l125.158-45.792c8.422-3.077,12.762-12.457,9.72-20.958c-3.036-8.492-12.363-12.873-20.77-9.804
					c0,0-109.64,40.092-146.176,53.486c-16.935,6.208-11.3,20.334-7.214,25.497c3.806,4.808,15.034,19.381,15.034,19.381v41.414
					c0,0.454,0.223,0.839,0.256,1.287c-3.291,4.774-4.811,10.603-3.991,16.429l7.014,49.994c1.238,8.883,8.781,15.491,17.679,15.491
					h23.125c0.396,15.452,12.867,27.878,28.252,27.878c15.404,0,27.875-12.427,28.271-27.878h23.111
					c8.896,0,16.439-6.607,17.68-15.491l7.013-49.994c0.82-5.844-0.713-11.683-4.024-16.47c0.034-0.438,0.258-0.815,0.258-1.262
					v-41.397H316.3L316.3,334.667z"/>
				<path d="M169.364,259.673c1.837,0,3.708-0.319,5.524-0.989L321.064,205.2c8.422-3.078,12.762-12.458,9.72-20.958
					c-3.036-8.493-12.363-12.882-20.77-9.804l-146.176,53.486c-8.419,3.074-12.753,12.455-9.719,20.957
					C156.51,255.534,162.735,259.673,169.364,259.673z"/>
				<path d="M169.364,197.807c1.837,0,3.708-0.319,5.524-0.989l146.176-53.485c8.422-3.079,12.762-12.458,9.72-20.958
					c-3.036-8.493-12.363-12.882-20.77-9.804l-146.176,53.486c-8.419,3.075-12.753,12.455-9.719,20.958
					C156.51,193.667,162.735,197.807,169.364,197.807z"/>
				<path d="M169.364,135.938c1.837,0,3.708-0.319,5.524-0.988l146.176-53.486c8.422-3.078,12.762-12.458,9.72-20.958
					c-3.036-8.503-12.363-12.889-20.77-9.804l-146.176,53.486c-8.419,3.075-12.753,12.454-9.719,20.958
					C156.51,131.801,162.735,135.938,169.364,135.938z"/>
				<path d="M169.364,65.884c1.837,0,3.708-0.319,5.524-0.992l90.552-33.144c8.429-3.074,12.764-12.464,9.721-20.958
					c-3.049-8.5-12.356-12.886-20.764-9.805l-90.559,33.144c-8.419,3.079-12.753,12.465-9.719,20.958
					C156.51,61.744,162.735,65.884,169.364,65.884z"/>
			</g>
		</g>
	</g>
</g>
<g>
</g>
<g>
</g>
<g>
</g>
<g>
</g>
<g>
</g>
<g>
</g>
<g>
</g>
<g>
</g>
<g>
</g>
<g>
</g>
<g>
</g>
<g>
</g>
<g>
</g>
<g>
</g>
<g>
</g>
</svg>
